PathFileType	3	(X/Y/Z)	C:\Users\koon_\Desktop\
DataRate	CameraRate	NumFrames	NumMarkers	Units	OrigDataRate	OrigDataStartFrame	OrigNumFrames
100.0	100.0	10	27	mm	100.0	1240	3304	
Frame#	Time	GM:LFHD			GM:RFHD			GM:LBHD			GM:RBHD			GM:C7			GM:T10			GM:CLAV			GM:STRN			GM:RBAK			GM:LSHO			GM:LUPA			GM:LELB			GM:LFRA			GM:LWRA			GM:LWRB			GM:LFIN			GM:RSHO			GM:RUPA			GM:RELB			GM:RFRA			GM:RWRA			GM:RWRB			GM:RFIN			GM:LASI			GM:RASI			GM:LPSI			GM:RPSI			
		X1	Y1	Z1	X2	Y2	Z2	X3	Y3	Z3	X4	Y4	Z4	X5	Y5	Z5	X6	Y6	Z6	X7	Y7	Z7	X8	Y8	Z8	X9	Y9	Z9	X10	Y10	Z10	X11	Y11	Z11	X12	Y12	Z12	X13	Y13	Z13	X14	Y14	Z14	X15	Y15	Z15	X16	Y16	Z16	X17	Y17	Z17	X18	Y18	Z18	X19	Y19	Z19	X20	Y20	Z20	X21	Y21	Z21	X22	Y22	Z22	X23	Y23	Z23	X24	Y24	Z24	X25	Y25	Z25	X26	Y26	Z26	X27	Y27	Z27	
1240	12.39	96.490067	1477.6079	45.136021	-55.298393	1460.124	60.900589	79.542419	1501.8643	-85.050179	-78.970642	1480.8513	-50.528252	10.851708	1362.464	-159.31221	10.465862	1213.3313	-288.88885	29.235935	1235.8759	-44.292187	29.539921	1086.8386	-66.687378	-93.038704	1285.0079	-231.38481	189.80058	1300.9041	-89.02494	259.09036	1205.2598	-76.212524	315.55246	1000.7647	-80.005806	267.08923	998.20685	58.03194	258.77533	975.28491	126.77665	261.20343	911.85602	108.59231	272.18115	919.1142	200.60254	-153.42484	1277.7723	-55.761677	-245.16081	1084.1295	-15.593072	-296.17694	995.10333	-15.841232	-240.07669	1011.6871	60.702446	-185.75667	954.35632	162.1624	-191.0787	897.00665	140.77429	-170.87253	892.61786	230.45113	159.94106	855.7489	-182.68457	-133.05838	862.66736	-152.78323	69.854378	896.45624	-378.97263	-87.568428	879.43774	-364.9079
1241	12.4	97.985191	1481.1722	41.164181	-53.594345	1463.826	58.580933	79.842857	1504.5181	-88.926468	-78.294586	1484.1038	-53.125599	10.980692	1364.1941	-161.88805	10.248742	1213.7476	-289.89505	30.023436	1238.9652	-45.700634	30.336468	1089.674	-66.4132	-93.007027	1285.9941	-233.38551	190.80246	1303.6578	-92.577682	259.8324	1207.0811	-82.168526	315.81204	1002.1666	-90.983406	268.1908	998.71698	47.016521	260.01614	975.06732	115.61543	261.30862	911.92291	96.705597	273.46039	918.16351	188.69145	-153.27986	1280.3541	-57.699348	-246.12495	1085.7023	-21.018387	-297.71701	997.01483	-23.290535	-240.71808	1012.8669	53.119995	-185.19762	954.69897	153.36578	-190.37346	897.52832	131.25011	-168.97989	891.98779	220.53761	160.48663	856.76453	-180.96051	-132.52335	863.47937	-149.94223	69.94088	896.63049	-377.42975	-87.543633	879.57623	-362.64734
1242	12.41	99.654518	1484.6974	37.185478	-51.743385	1467.5649	56.108807	80.240173	1507.1753	-92.885529	-77.760429	1486.777	-55.222908	11.068025	1365.901	-164.55482	10.047845	1214.1693	-290.88794	30.795208	1242.072	-46.997505	31.138304	1092.5624	-66.233086	-92.803024	1286.9794	-235.56999	191.79181	1306.4187	-96.181709	260.49609	1208.9666	-87.903511	316.20746	1003.7701	-102.26752	269.24649	999.28125	36.104206	261.25208	975.06635	104.50763	261.50159	912.11481	84.896164	274.75089	917.45837	176.71872	-153.19252	1282.9435	-59.701397	-247.04927	1087.5956	-26.541321	-298.97266	999.02362	-30.328966	-240.93239	1014.0626	45.567291	-184.81158	955.28833	144.65839	-189.51993	898.34186	121.82509	-166.94025	891.60791	210.84096	161.07298	857.87939	-179.28778	-131.95776	864.31873	-147.17911	69.792458	896.68695	-375.51212	-87.505348	879.76001	-360.28247
1243	12.42	101.38448	1488.1705	33.092476	-49.823895	1471.2703	53.818428	80.671585	1509.8357	-96.987938	-76.993721	1489.8762	-57.418533	11.150761	1367.5759	-167.24071	9.9114141	1214.5757	-291.82529	31.570391	1245.2821	-48.436279	32.07851	1095.4839	-66.000282	-92.575607	1288.0833	-237.85358	192.76978	1309.137	-99.902626	261.10562	1210.797	-93.703842	316.39169	1005.4843	-113.42573	270.3208	999.90216	25.224831	262.52847	975.29675	93.370453	261.68793	912.17401	73.066017	276.33725	916.87451	164.79532	-153.01208	1285.6479	-61.762756	-247.72968	1089.6454	-31.63714	-300.25296	1001.2432	-37.289982	-241.32799	1015.5767	38.497513	-184.0695	956.00696	136.21965	-188.60693	899.24799	112.65157	-164.6441	891.44763	201.31555	161.75041	859.09406	-177.6067	-131.20135	865.33954	-144.468	69.700645	896.87726	-373.73587	-87.53347	879.96985	-357.81543
1244	12.43	103.25761	1491.5244	28.868034	-47.839615	1474.9307	51.224937	81.023735	1512.3684	-100.96913	-75.866714	1493.1578	-59.63361	11.2908	1369.2653	-169.90826	9.7626028	1214.9355	-292.85809	32.487965	1248.4623	-49.876728	33.183186	1098.5082	-65.600739	-92.397606	1289.3	-240.07539	193.77164	1311.8618	-103.56547	261.75806	1212.6917	-99.625778	315.88986	1007.3347	-124.61676	271.1232	1000.8596	14.213439	263.88657	975.65271	82.22522	262.73425	913.04968	61.462372	278.08627	916.5451	152.89661	-152.89552	1288.3391	-63.844852	-248.39772	1091.7882	-36.512825	-301.28012	1003.6591	-43.73859	-241.72061	1017.2828	31.733942	-182.96436	956.93121	128.0936	-187.50922	900.3454	103.7878	-162.19691	891.65118	192.26907	162.4696	860.2915	-175.91743	-130.53372	866.8324	-141.91013	69.750092	897.086	-371.90372	-87.521065	880.32587	-355.39877
1245	12.44	105.23152	1494.7849	24.676413	-45.460648	1478.5936	49.050339	81.510239	1514.8752	-105.07806	-74.923393	1495.8231	-61.493618	11.365049	1370.9567	-172.54285	9.5559988	1215.2994	-293.75757	33.4272	1251.6189	-51.277637	35.232647	1101.8253	-62.670387	-92.188965	1290.627	-242.2316	194.73344	1314.5968	-107.41157	262.55493	1214.621	-105.75707	316.11618	1009.4692	-135.83354	272.16318	1001.8112	3.2803025	265.28354	976.18396	71.049309	263.20053	913.55005	49.532207	279.84207	916.35052	140.93791	-152.73575	1291.009	-65.923157	-248.92935	1094.0917	-41.083878	-302.34811	1006.3033	-49.736118	-241.86664	1019.1796	25.369049	-181.43596	958.04944	120.19162	-186.33684	901.69	95.448685	-159.60623	892.10358	183.45935	163.21069	861.45276	-174.30365	-129.14758	866.90973	-138.52518	69.702507	897.30066	-370.0621	-87.586075	880.62573	-352.75082
1246	12.45	107.33209	1497.9308	20.41964	-42.782059	1482.1151	46.910263	81.952332	1517.3274	-109.14914	-73.715172	1498.7039	-63.36364	11.457506	1372.5924	-174.99615	9.335412	1215.6433	-294.6644	34.47913	1254.7174	-52.720638	36.444233	1104.8502	-62.425846	-92.090912	1291.9626	-244.24843	195.72067	1317.3947	-111.22005	263.474	1216.7174	-112.0705	315.7612	1011.6683	-147.1263	273.05002	1003.1948	-7.7028246	266.79773	976.9071	59.916111	264.02377	914.40625	38.074123	281.69156	916.34717	129.02597	-152.36674	1293.6475	-67.774643	-249.33145	1096.3925	-45.424648	-303.40387	1009.0458	-55.362446	-241.82045	1021.2537	19.372311	-180.21875	959.54504	112.95433	-185.11078	903.35687	87.54071	-156.80975	892.84314	175.14839	164.05299	862.71179	-172.66507	-128.22906	867.76672	-135.41205	69.657303	897.47534	-368.16193	-87.623589	880.98267	-350.10367
1247	12.46	109.59431	1501.0262	16.104973	-40.298733	1485.5215	44.801563	82.365463	1519.6873	-113.20869	-72.439491	1501.6195	-65.097656	11.633619	1374.2224	-177.36775	9.0497131	1216.0195	-295.63391	35.609516	1257.7346	-54.140903	36.647144	1107.4838	-64.849014	-91.996689	1293.1648	-246.06891	196.79312	1320.2766	-115.03528	264.52295	1219.026	-118.51122	314.79434	1013.9633	-158.47217	274.08203	1004.3386	-18.502121	268.34201	977.7608	48.818417	264.77533	915.50348	26.254791	283.97189	916.55981	117.05845	-151.9615	1296.2991	-69.463943	-249.80765	1098.7576	-49.939575	-304.03094	1011.8694	-60.516304	-241.50009	1023.4189	13.723141	-178.89513	961.42035	106.13312	-183.86308	905.22278	80.13678	-153.80989	893.84485	167.0351	164.9218	863.97083	-171.16278	-127.00616	868.67151	-132.44572	69.656944	897.73712	-366.45151	-87.67775	881.3894	-347.46176
1248	12.47	111.93578	1504.1224	11.81552	-37.392124	1488.8674	42.748077	82.995888	1522.3224	-117.01321	-71.1278	1504.403	-66.771286	11.802661	1375.7904	-179.73952	8.7312212	1216.2871	-296.45074	36.973389	1260.7485	-55.454391	38.054707	1110.4222	-64.637581	-91.956886	1294.2188	-247.81441	197.83282	1323.1719	-119.11485	265.73471	1221.4088	-125.24489	314.48138	1016.5956	-169.69119	275.05939	1005.9819	-29.371521	269.92004	978.65442	37.775356	265.34402	916.68732	14.845601	286.18356	916.86633	105.15849	-151.34163	1298.9539	-70.865311	-249.99986	1101.3217	-53.661789	-304.27615	1014.8962	-65.466835	-240.98141	1025.7711	8.4627132	-177.10736	963.10889	99.259354	-182.38234	907.25433	73.133179	-150.83232	895.18048	159.38394	165.77808	865.17871	-169.70232	-125.90896	869.48108	-129.50009	69.661484	897.93774	-364.55276	-87.643784	881.86322	-344.90793
1249	12.48	114.45135	1507.2623	7.5175424	-34.519943	1492.106	40.838268	83.540337	1524.6521	-121.08176	-69.834633	1507.1267	-68.248047	12.053995	1377.2671	-182.11467	8.4237995	1216.274	-296.19412	38.303574	1263.663	-56.977337	40.354153	1113.5482	-62.427605	-91.882324	1294.9587	-249.14221	198.98167	1326.0385	-123.15843	267.1785	1224.0613	-131.85902	313.40103	1019.1351	-180.88934	276.04413	1007.528	-40.073193	271.71088	979.65503	26.867874	265.96964	917.96246	3.3444803	288.72809	917.28455	93.263031	-150.63054	1301.6171	-72.270821	-250.07913	1103.9995	-57.093433	-304.60754	1017.753	-69.848038	-240.46675	1028.1436	3.4523411	-175.29805	965.21631	92.960388	-180.78384	909.51825	66.377853	-148.13319	896.68451	152.27705	166.77376	866.36121	-168.35991	-124.72279	870.31519	-126.68961	69.671669	898.27289	-362.94672	-87.704941	882.28577	-342.15921
